<?xml version="1.0" encoding="UTF-8"?>
<svg xmlns="http://www.w3.org/2000/svg" version="1.1" viewBox="0 0 405.8 315">
  <defs>
    <style>
      .cls-1 {
        fill: #ba1822;
        stroke: #42291c;
        stroke-miterlimit: 10;
        stroke-width: 2px;
      }
    </style>
  </defs>
  <!-- Generator: Adobe Illustrator 28.7.1, SVG Export Plug-In . SVG Version: 1.2.0 Build 142)  -->
  <g>
    <g id="Capa_1">
      <path class="cls-1" d="M248.3,73.6c-40,0-80.1,0-120.1,0-23.2,0-39.9-20.1-35.7-42.7,2.9-15.9,16.9-28.2,33.1-29,1.1,0,2.1,0,3.2,0,79.7,0,159.4,0,239,0,20.6,0,36.5,15.2,37,35,.4,20.3-15.5,36.7-35.9,36.8-24.5.1-49,0-73.4,0-15.7,0-31.4,0-47.1,0Z"/>
      <path class="cls-1" d="M247.9,193.3c-39.9,0-79.8,0-119.7,0-20.9,0-37-16.6-36.3-37.2.6-18.5,15.7-33.8,34.2-34.6.9,0,1.9,0,2.8,0,79.7,0,159.4,0,239,0,20.5,0,36.5,15.2,36.9,35,.4,20.3-15.5,36.7-36,36.8-25.7.1-51.3,0-77,0-14.6,0-29.3,0-43.9,0Z"/>
      <path class="cls-1" d="M248.3,241.2c40,0,80.1,0,120.1,0,23.2,0,39.9,20.1,35.7,42.7-2.9,15.9-16.9,28.2-33.1,29-1.1,0-2.1,0-3.2,0-79.7,0-159.4,0-239,0-20.6,0-36.5-15.2-37-35-.4-20.3,15.5-36.7,35.9-36.8,24.2-.1,48.4,0,72.6,0,16,0,31.9,0,47.9,0Z"/>
      <circle class="cls-1" cx="37.5" cy="37.5" r="36.5"/>
      <circle class="cls-1" cx="37.5" cy="157.5" r="36.5"/>
      <circle class="cls-1" cx="37.5" cy="277.5" r="36.5"/>
    </g>
  </g>
</svg>