<?xml version="1.0" encoding="UTF-8"?>
<svg xmlns="http://www.w3.org/2000/svg" xmlns:xlink="http://www.w3.org/1999/xlink" version="1.1" viewBox="0 0 178.6 153.1">
  <defs>
    <style>
      .cls-1 {
        fill: none;
      }

      .cls-2 {
        fill: #ba1320;
      }

      .cls-2, .cls-3, .cls-4, .cls-5, .cls-6, .cls-7 {
        fill-rule: evenodd;
      }

      .cls-8 {
        fill: url(#linear-gradient-8);
      }

      .cls-9 {
        fill: url(#linear-gradient-7);
      }

      .cls-10 {
        fill: url(#linear-gradient-5);
      }

      .cls-11 {
        fill: url(#linear-gradient-6);
      }

      .cls-12 {
        fill: url(#linear-gradient-9);
      }

      .cls-13 {
        fill: url(#linear-gradient-4);
      }

      .cls-14 {
        fill: url(#linear-gradient-3);
      }

      .cls-15 {
        fill: url(#linear-gradient-2);
      }

      .cls-3 {
        fill: #fff8e4;
      }

      .cls-16 {
        fill: url(#linear-gradient);
      }

      .cls-17 {
        clip-path: url(#clippath-17);
      }

      .cls-18 {
        clip-path: url(#clippath-19);
      }

      .cls-19 {
        clip-path: url(#clippath-11);
      }

      .cls-20 {
        clip-path: url(#clippath-16);
      }

      .cls-21 {
        clip-path: url(#clippath-18);
      }

      .cls-22 {
        clip-path: url(#clippath-10);
      }

      .cls-23 {
        clip-path: url(#clippath-15);
      }

      .cls-24 {
        clip-path: url(#clippath-13);
      }

      .cls-25 {
        clip-path: url(#clippath-14);
      }

      .cls-26 {
        clip-path: url(#clippath-12);
      }

      .cls-27 {
        clip-path: url(#clippath-31);
      }

      .cls-28 {
        clip-path: url(#clippath-32);
      }

      .cls-29 {
        clip-path: url(#clippath-33);
      }

      .cls-30 {
        clip-path: url(#clippath-34);
      }

      .cls-31 {
        clip-path: url(#clippath-35);
      }

      .cls-32 {
        clip-path: url(#clippath-39);
      }

      .cls-33 {
        clip-path: url(#clippath-30);
      }

      .cls-34 {
        clip-path: url(#clippath-36);
      }

      .cls-35 {
        clip-path: url(#clippath-37);
      }

      .cls-36 {
        clip-path: url(#clippath-38);
      }

      .cls-37 {
        clip-path: url(#clippath-27);
      }

      .cls-38 {
        clip-path: url(#clippath-29);
      }

      .cls-39 {
        clip-path: url(#clippath-26);
      }

      .cls-40 {
        clip-path: url(#clippath-28);
      }

      .cls-41 {
        clip-path: url(#clippath-20);
      }

      .cls-42 {
        clip-path: url(#clippath-21);
      }

      .cls-43 {
        clip-path: url(#clippath-22);
      }

      .cls-44 {
        clip-path: url(#clippath-23);
      }

      .cls-45 {
        clip-path: url(#clippath-24);
      }

      .cls-46 {
        clip-path: url(#clippath-25);
      }

      .cls-4, .cls-47 {
        fill: #41281b;
      }

      .cls-48 {
        clip-path: url(#clippath-1);
      }

      .cls-49 {
        clip-path: url(#clippath-3);
      }

      .cls-50 {
        clip-path: url(#clippath-4);
      }

      .cls-51 {
        clip-path: url(#clippath-2);
      }

      .cls-52 {
        clip-path: url(#clippath-7);
      }

      .cls-53 {
        clip-path: url(#clippath-6);
      }

      .cls-54 {
        clip-path: url(#clippath-9);
      }

      .cls-55 {
        clip-path: url(#clippath-8);
      }

      .cls-56 {
        clip-path: url(#clippath-5);
      }

      .cls-57 {
        fill: #fff;
      }

      .cls-58 {
        fill: #ffed00;
      }

      .cls-59 {
        fill: #d47a0e;
      }

      .cls-60 {
        fill: #00632e;
      }

      .cls-61 {
        fill: url(#linear-gradient-10);
      }

      .cls-62 {
        fill: url(#linear-gradient-11);
      }

      .cls-63 {
        fill: url(#linear-gradient-12);
      }

      .cls-64 {
        fill: url(#linear-gradient-13);
      }

      .cls-65 {
        fill: url(#linear-gradient-19);
      }

      .cls-66 {
        fill: url(#linear-gradient-14);
      }

      .cls-67 {
        fill: url(#linear-gradient-21);
      }

      .cls-68 {
        fill: url(#linear-gradient-20);
      }

      .cls-69 {
        fill: url(#linear-gradient-22);
      }

      .cls-70 {
        fill: url(#linear-gradient-23);
      }

      .cls-71 {
        fill: url(#linear-gradient-25);
      }

      .cls-72 {
        fill: url(#linear-gradient-15);
      }

      .cls-73 {
        fill: url(#linear-gradient-16);
      }

      .cls-74 {
        fill: url(#linear-gradient-17);
      }

      .cls-75 {
        fill: url(#linear-gradient-18);
      }

      .cls-76 {
        fill: url(#linear-gradient-24);
      }

      .cls-77 {
        fill: url(#linear-gradient-26);
      }

      .cls-5 {
        fill: #8f1421;
      }

      .cls-6 {
        fill: #5d191c;
      }

      .cls-78 {
        fill: #e2001a;
      }

      .cls-79 {
        fill: #d47510;
      }

      .cls-7 {
        fill: #5f4c3f;
      }

      .cls-80 {
        clip-path: url(#clippath);
      }

      .cls-81 {
        fill: #623e31;
      }

      .cls-82 {
        fill: #f5ebce;
      }

      .cls-83 {
        fill: #a46839;
      }
    </style>
    <clipPath id="clippath">
      <rect class="cls-1" x="-1.3" y="-1.1" width="181.1" height="155.2"/>
    </clipPath>
    <clipPath id="clippath-1">
      <path class="cls-1" d="M85.8,61.2c26.7,17.9,42,13.6,52.5,8.8,0,0-16-36.1-57.8-43.5,0,0-21.4,16.8,5.3,34.7"/>
    </clipPath>
    <linearGradient id="linear-gradient" x1="-1.3" y1="154.1" x2="-.3" y2="154.1" gradientTransform="translate(-11197.6 115.5) rotate(90) scale(73.3 -73.3)" gradientUnits="userSpaceOnUse">
      <stop offset="0" stop-color="#fdc800"/>
      <stop offset="1" stop-color="#ec7f00"/>
    </linearGradient>
    <clipPath id="clippath-2">
      <rect class="cls-1" x="-1.3" y="-1.1" width="181.1" height="155.2"/>
    </clipPath>
    <clipPath id="clippath-3">
      <path class="cls-1" d="M87.1,58.5c-1.3.4-1.8,2.3-.8,4.9,1,2.6,2.6,3.6,3.9,3.3,1.3-.4,1.8-2,.8-4.6-.9-2.3-2.3-3.7-3.5-3.7s-.3,0-.4,0"/>
    </clipPath>
    <linearGradient id="linear-gradient-2" x1="-1.3" y1="154.1" x2="-.3" y2="154.1" gradientTransform="translate(-965.3 67.8) rotate(90) scale(6.8 -6.8)" gradientUnits="userSpaceOnUse">
      <stop offset="0" stop-color="#fdc800"/>
      <stop offset="1" stop-color="#ec7f00"/>
    </linearGradient>
    <clipPath id="clippath-4">
      <path class="cls-1" d="M93.4,61.4c-1.7.5-2.3,2.9-1.1,6.1,1.2,3.2,3.3,4.4,4.9,4,1.7-.5,2.3-2.5,1.1-5.7-1.1-2.9-2.8-4.5-4.4-4.5s-.4,0-.6,0"/>
    </clipPath>
    <linearGradient id="linear-gradient-3" x1="-1.3" y1="154.1" x2="-.3" y2="154.1" gradientTransform="translate(-1230.7 73.5) rotate(90) scale(8.6 -8.6)" gradientUnits="userSpaceOnUse">
      <stop offset="0" stop-color="#fdc800"/>
      <stop offset="1" stop-color="#ec7f00"/>
    </linearGradient>
    <clipPath id="clippath-5">
      <path class="cls-1" d="M100.2,65.4c-1.5.9-1.4,3.4.7,6.2,2.1,2.8,4.4,3.5,5.8,2.7,1.5-.9,1.5-3-.6-5.8-1.6-2.2-3.4-3.4-4.8-3.4-.4,0-.8,0-1.1.3"/>
    </clipPath>
    <linearGradient id="linear-gradient-4" x1="-1.3" y1="154.1" x2="-.3" y2="154.1" gradientTransform="translate(-1415.8 77.6) rotate(90) scale(9.9 -9.9)" gradientUnits="userSpaceOnUse">
      <stop offset="0" stop-color="#fdc800"/>
      <stop offset="1" stop-color="#ec7f00"/>
    </linearGradient>
    <clipPath id="clippath-6">
      <path class="cls-1" d="M107.5,68.9c-.9,1.3.1,3.6,3.1,5.5s5.3,1.8,6.3.5c.9-1.3.2-3.3-2.8-5.2-1.7-1.1-3.3-1.7-4.5-1.7s-1.6.3-2,.8"/>
    </clipPath>
    <linearGradient id="linear-gradient-5" x1="-1.3" y1="154.1" x2="-.3" y2="154.1" gradientTransform="translate(-1566.5 80.6) rotate(90) scale(10.9 -10.9)" gradientUnits="userSpaceOnUse">
      <stop offset="0" stop-color="#fdc800"/>
      <stop offset="1" stop-color="#ec7f00"/>
    </linearGradient>
    <clipPath id="clippath-7">
      <path class="cls-1" d="M133.3,69.7c-.4,1.2.5,2.6,2.5,3.3,2,.7,3.4,0,3.8-1.2.4-1.2-.3-2.4-2.3-3.1-.6-.2-1.2-.3-1.7-.3-1.2,0-2,.5-2.3,1.3"/>
    </clipPath>
    <linearGradient id="linear-gradient-6" x1="-1.3" y1="154.1" x2="-.3" y2="154.1" gradientTransform="translate(-884 76.1) rotate(90) scale(6.6 -6.6)" gradientUnits="userSpaceOnUse">
      <stop offset="0" stop-color="#fdc800"/>
      <stop offset="1" stop-color="#ec7f00"/>
    </linearGradient>
    <clipPath id="clippath-8">
      <path class="cls-1" d="M126.3,70.8c-.4,1.3,1,2.9,3.8,3.9,2.8,1,4.6.4,5.1-.9.4-1.3-.7-2.7-3.5-3.7-1.1-.4-2-.5-2.9-.5-1.3,0-2.2.4-2.5,1.2"/>
    </clipPath>
    <linearGradient id="linear-gradient-7" x1="-1.3" y1="154.2" x2="-.3" y2="154.2" gradientTransform="translate(-1311.7 80.1) rotate(90) scale(9.4 -9.4)" gradientUnits="userSpaceOnUse">
      <stop offset="0" stop-color="#fdc800"/>
      <stop offset="1" stop-color="#ec7f00"/>
    </linearGradient>
    <clipPath id="clippath-9">
      <path class="cls-1" d="M117.1,71.2c-.5,1.5,1.2,3.5,4.5,4.6,3.4,1.1,5.6.4,6.1-1.1.5-1.5-.8-3.2-4.2-4.4-1.3-.4-2.4-.6-3.4-.6-1.6,0-2.7.5-3,1.5"/>
    </clipPath>
    <linearGradient id="linear-gradient-8" x1="-1.2" y1="154.1" x2="-.2" y2="154.1" gradientTransform="translate(-1604.8 81.5) rotate(90) scale(11.2 -11.2)" gradientUnits="userSpaceOnUse">
      <stop offset="0" stop-color="#fdc800"/>
      <stop offset="1" stop-color="#ec7f00"/>
    </linearGradient>
    <clipPath id="clippath-10">
      <rect class="cls-1" x="-1.3" y="-1.1" width="181.1" height="155.2"/>
    </clipPath>
    <clipPath id="clippath-11">
      <path class="cls-1" d="M77.4,26.2c-1.4,1.9-1.4,3.3-.7,3.9.7.5,2,0,3.4-1.9,1.4-1.9,1.6-3.5.9-4-.2-.1-.3-.2-.6-.2-.8,0-1.9.8-3,2.3"/>
    </clipPath>
    <linearGradient id="linear-gradient-9" x1="-1.4" y1="154.2" x2="-.4" y2="154.2" gradientTransform="translate(84 929.3) scale(5.9 -5.9)" gradientUnits="userSpaceOnUse">
      <stop offset="0" stop-color="#ec7f00"/>
      <stop offset="1" stop-color="#fdc800"/>
    </linearGradient>
    <clipPath id="clippath-12">
      <path class="cls-1" d="M73.9,30.5c-.9,2.2-.6,3.6.3,3.9.8.3,1.9-.5,2.8-2.7.9-2.2.7-3.8-.1-4.1-.1,0-.2,0-.3,0-.8,0-1.9,1.1-2.6,3"/>
    </clipPath>
    <linearGradient id="linear-gradient-10" x1="-1.3" y1="154" x2="-.3" y2="154" gradientTransform="translate(79.2 787.9) scale(4.9 -4.9)" gradientUnits="userSpaceOnUse">
      <stop offset="0" stop-color="#ec7f00"/>
      <stop offset="1" stop-color="#fdc800"/>
    </linearGradient>
    <clipPath id="clippath-13">
      <path class="cls-1" d="M71.6,35.4c-.9,2.2-.6,3.6.3,3.9.8.3,1.9-.5,2.8-2.7.9-2.2.7-3.8-.1-4.1-.1,0-.2,0-.3,0-.8,0-1.9,1.1-2.6,3"/>
    </clipPath>
    <linearGradient id="linear-gradient-11" x1="-1.3" y1="154" x2="-.3" y2="154" gradientTransform="translate(76.9 792.8) scale(4.9 -4.9)" gradientUnits="userSpaceOnUse">
      <stop offset="0" stop-color="#ec7f00"/>
      <stop offset="1" stop-color="#fdc800"/>
    </linearGradient>
    <clipPath id="clippath-14">
      <path class="cls-1" d="M70.5,40.8c-.3,2.3.4,3.6,1.3,3.7.9.1,1.7-1,2-3.3.3-2.3-.3-3.9-1.2-4,0,0,0,0-.1,0-.9,0-1.7,1.3-2,3.6"/>
    </clipPath>
    <linearGradient id="linear-gradient-12" x1="-1.4" y1="154.3" x2="-.4" y2="154.3" gradientTransform="translate(75.6 649.1) scale(3.9 -3.9)" gradientUnits="userSpaceOnUse">
      <stop offset="0" stop-color="#ec7f00"/>
      <stop offset="1" stop-color="#fdc800"/>
    </linearGradient>
    <clipPath id="clippath-15">
      <rect class="cls-1" x="-1.3" y="-1.1" width="181.1" height="155.2"/>
    </clipPath>
    <clipPath id="clippath-16">
      <path class="cls-1" d="M70.6,45.4c0,2.3.8,3.5,1.9,3.6,1,0,1.9-1.2,1.9-3.5,0-2.3-.8-3.8-1.8-3.8h0c-1,0-1.9,1.4-2,3.8"/>
    </clipPath>
    <linearGradient id="linear-gradient-13" x1="-1.1" y1="154.2" x2="-.1" y2="154.2" gradientTransform="translate(75 669.3) scale(4 -4)" gradientUnits="userSpaceOnUse">
      <stop offset="0" stop-color="#ec7f00"/>
      <stop offset="1" stop-color="#fdc800"/>
    </linearGradient>
    <clipPath id="clippath-17">
      <rect class="cls-1" x="-1.3" y="-1.1" width="181.1" height="155.2"/>
    </clipPath>
    <clipPath id="clippath-18">
      <path class="cls-1" d="M74,47.2c-1,.2-1.6,1.8-1.1,4.1.5,2.3,1.6,3.3,2.6,3,1-.2,1.5-1.6,1-3.8-.5-2.1-1.4-3.3-2.4-3.3s-.2,0-.2,0"/>
    </clipPath>
    <linearGradient id="linear-gradient-14" x1="-1.4" y1="154.1" x2="-.4" y2="154.1" gradientTransform="translate(78.1 633.6) scale(3.8 -3.8)" gradientUnits="userSpaceOnUse">
      <stop offset="0" stop-color="#ec7f00"/>
      <stop offset="1" stop-color="#fdc800"/>
    </linearGradient>
    <clipPath id="clippath-19">
      <rect class="cls-1" x="-1.3" y="-1.1" width="181.1" height="155.2"/>
    </clipPath>
    <clipPath id="clippath-20">
      <path class="cls-1" d="M78.2,51c-1.2.3-1.8,2-1.3,4.6.6,2.5,1.8,3.6,3,3.4,1.2-.3,1.8-1.7,1.2-4.3-.5-2.3-1.6-3.7-2.7-3.7s-.2,0-.3,0"/>
    </clipPath>
    <linearGradient id="linear-gradient-15" x1="-1.2" y1="154.1" x2="-.2" y2="154.1" gradientTransform="translate(82.1 723.8) scale(4.3 -4.3)" gradientUnits="userSpaceOnUse">
      <stop offset="0" stop-color="#ec7f00"/>
      <stop offset="1" stop-color="#fdc800"/>
    </linearGradient>
    <clipPath id="clippath-21">
      <rect class="cls-1" x="-1.3" y="-1.1" width="181.1" height="155.2"/>
    </clipPath>
    <clipPath id="clippath-22">
      <path class="cls-1" d="M81.5,55c-1.1.6-1.2,2.4,0,4.7,1.2,2.3,2.7,3,3.8,2.4,1.1-.6,1.3-2.1,0-4.4-1-1.9-2.2-2.9-3.2-2.9s-.4,0-.6.1"/>
    </clipPath>
    <linearGradient id="linear-gradient-16" x1="-1.3" y1="154.1" x2="-.3" y2="154.1" gradientTransform="translate(87.1 806.1) scale(4.9 -4.9)" gradientUnits="userSpaceOnUse">
      <stop offset="0" stop-color="#ec7f00"/>
      <stop offset="1" stop-color="#fdc800"/>
    </linearGradient>
    <clipPath id="clippath-23">
      <rect class="cls-1" x="-1.3" y="-1.1" width="181.1" height="155.2"/>
    </clipPath>
    <clipPath id="clippath-24">
      <path class="cls-1" d="M52.9,48.1s-21.8,16.8,3.8,32.3l31.7-20.4s-4.1-12.5-26.4-12.5c-2.7,0-5.7.2-9,.6"/>
    </clipPath>
    <linearGradient id="linear-gradient-17" x1="-1.3" y1="154.3" x2="-.3" y2="154.3" gradientTransform="translate(88.2 5633.7) scale(36.1 -36.1)" gradientUnits="userSpaceOnUse">
      <stop offset="0" stop-color="#fdc800"/>
      <stop offset="1" stop-color="#ec7f00"/>
    </linearGradient>
    <clipPath id="clippath-25">
      <rect class="cls-1" x="-1.3" y="-1.1" width="181.1" height="155.2"/>
    </clipPath>
    <clipPath id="clippath-26">
      <path class="cls-1" d="M69.2,55.7c1.8-1,3.6-1.6,5.3-2,2.5-.5,4.8-.4,7,.3,5.1,1.7,7.7,6.3,8.2,7.3-1,1.4-9.1,11.7-32.3,18.5-.3-2.6-1.5-17.3,11.6-24.1M68.9,55.1c-14.8,7.7-12,25.1-12,25.3v.4c0,0,.5-.1.5-.1,25.5-7.3,33.1-18.9,33.2-19.1v-.2c.1,0,0-.2,0-.2-.1-.2-2.8-5.8-8.8-7.8-1.4-.5-2.8-.7-4.3-.7-2.7,0-5.6.8-8.7,2.4"/>
    </clipPath>
    <linearGradient id="linear-gradient-18" x1="-1.3" y1="154.1" x2="-.3" y2="154.1" gradientTransform="translate(101.6 5760.1) scale(36.9 -36.9)" gradientUnits="userSpaceOnUse">
      <stop offset="0" stop-color="#fdc800"/>
      <stop offset="1" stop-color="#ec7f00"/>
    </linearGradient>
    <clipPath id="clippath-27">
      <rect class="cls-1" x="-1.3" y="-1.1" width="181.1" height="155.2"/>
    </clipPath>
    <clipPath id="clippath-28">
      <path class="cls-1" d="M49.7,48c-1.3,1.9-1.4,3.3-.6,3.9.7.5,2,0,3.3-2,1.3-1.9,1.6-3.5.8-4-.2-.1-.3-.2-.5-.2-.8,0-1.9.8-3,2.3"/>
    </clipPath>
    <linearGradient id="linear-gradient-19" x1="-1.3" y1="154.1" x2="-.3" y2="154.1" gradientTransform="translate(55.6 947.3) scale(5.8 -5.8)" gradientUnits="userSpaceOnUse">
      <stop offset="0" stop-color="#ec7f00"/>
      <stop offset="1" stop-color="#fdc800"/>
    </linearGradient>
    <clipPath id="clippath-29">
      <path class="cls-1" d="M46.2,52.4c-.8,2.2-.5,3.6.3,3.9.9.3,1.9-.5,2.7-2.7.8-2.2.7-3.8-.2-4.1,0,0-.2,0-.3,0-.8,0-1.9,1.1-2.6,3"/>
    </clipPath>
    <linearGradient id="linear-gradient-20" x1="-1.2" y1="154.1" x2="-.2" y2="154.1" gradientTransform="translate(51.3 807.3) scale(4.9 -4.9)" gradientUnits="userSpaceOnUse">
      <stop offset="0" stop-color="#ec7f00"/>
      <stop offset="1" stop-color="#fdc800"/>
    </linearGradient>
    <clipPath id="clippath-30">
      <path class="cls-1" d="M44,57.3c-.8,2.2-.5,3.6.3,3.9.8.3,1.9-.5,2.7-2.7.8-2.2.7-3.8-.2-4.1,0,0-.2,0-.3,0-.8,0-1.9,1.1-2.6,3"/>
    </clipPath>
    <linearGradient id="linear-gradient-21" x1="-1.2" y1="154.1" x2="-.2" y2="154.1" gradientTransform="translate(49 812.2) scale(4.9 -4.9)" gradientUnits="userSpaceOnUse">
      <stop offset="0" stop-color="#ec7f00"/>
      <stop offset="1" stop-color="#fdc800"/>
    </linearGradient>
    <clipPath id="clippath-31">
      <path class="cls-1" d="M43,62.7c-.2,2.3.4,3.6,1.3,3.7.9,0,1.7-1,2-3.3.2-2.3-.3-3.8-1.2-3.9,0,0,0,0,0,0-.9,0-1.7,1.3-2,3.6"/>
    </clipPath>
    <linearGradient id="linear-gradient-22" x1="-1.2" y1="154.2" x2="-.2" y2="154.2" gradientTransform="translate(47.2 668.6) scale(3.9 -3.9)" gradientUnits="userSpaceOnUse">
      <stop offset="0" stop-color="#ec7f00"/>
      <stop offset="1" stop-color="#fdc800"/>
    </linearGradient>
    <clipPath id="clippath-32">
      <rect class="cls-1" x="-1.3" y="-1.1" width="181.1" height="155.2"/>
    </clipPath>
    <clipPath id="clippath-33">
      <path class="cls-1" d="M43.2,67.3c0,2.3.9,3.5,1.9,3.5,1,0,1.8-1.2,1.8-3.5,0-2.3-.8-3.8-1.8-3.8h0c-1,0-1.9,1.4-1.9,3.8"/>
    </clipPath>
    <linearGradient id="linear-gradient-23" x1="-1.2" y1="154.3" x2="-.2" y2="154.3" gradientTransform="translate(48 689.4) scale(4 -4)" gradientUnits="userSpaceOnUse">
      <stop offset="0" stop-color="#ec7f00"/>
      <stop offset="1" stop-color="#fdc800"/>
    </linearGradient>
    <clipPath id="clippath-34">
      <rect class="cls-1" x="-1.3" y="-1.1" width="181.1" height="155.2"/>
    </clipPath>
    <clipPath id="clippath-35">
      <path class="cls-1" d="M46.6,69c-1,.2-1.5,1.8-1,4.1.5,2.3,1.7,3.2,2.7,3,1-.2,1.5-1.6,1-3.8-.5-2.1-1.5-3.3-2.4-3.3s-.2,0-.2,0"/>
    </clipPath>
    <linearGradient id="linear-gradient-24" x1="-1.2" y1="154.1" x2="-.2" y2="154.1" gradientTransform="translate(50 653.5) scale(3.8 -3.8)" gradientUnits="userSpaceOnUse">
      <stop offset="0" stop-color="#ec7f00"/>
      <stop offset="1" stop-color="#fdc800"/>
    </linearGradient>
    <clipPath id="clippath-36">
      <rect class="cls-1" x="-1.3" y="-1.1" width="181.1" height="155.2"/>
    </clipPath>
    <clipPath id="clippath-37">
      <path class="cls-1" d="M50.8,72.7c-1.2.3-1.8,2.1-1.2,4.6.6,2.5,1.9,3.6,3,3.3,1.2-.3,1.7-1.8,1.2-4.3-.5-2.3-1.7-3.6-2.7-3.6s-.2,0-.3,0"/>
    </clipPath>
    <linearGradient id="linear-gradient-25" x1="-1.1" y1="154.1" x2="-.1" y2="154.1" gradientTransform="translate(54.5 743.4) scale(4.3 -4.3)" gradientUnits="userSpaceOnUse">
      <stop offset="0" stop-color="#ec7f00"/>
      <stop offset="1" stop-color="#fdc800"/>
    </linearGradient>
    <clipPath id="clippath-38">
      <rect class="cls-1" x="-1.3" y="-1.1" width="181.1" height="155.2"/>
    </clipPath>
    <clipPath id="clippath-39">
      <path class="cls-1" d="M54.1,76.7c-1.1.6-1.2,2.5,0,4.7,1.2,2.3,2.8,2.9,3.8,2.4,1.1-.6,1.2-2.2,0-4.4-1-1.9-2.2-2.8-3.2-2.8s-.4,0-.6.2"/>
    </clipPath>
    <linearGradient id="linear-gradient-26" x1="-1.3" y1="154.2" x2="-.3" y2="154.2" gradientTransform="translate(59.9 825.8) scale(4.8 -4.8)" gradientUnits="userSpaceOnUse">
      <stop offset="0" stop-color="#ec7f00"/>
      <stop offset="1" stop-color="#fdc800"/>
    </linearGradient>
  </defs>
  <!-- Generator: Adobe Illustrator 28.6.0, SVG Export Plug-In . SVG Version: 1.2.0 Build 709)  -->
  <g>
    <g id="Capa_1">
      <g class="cls-80">
        <path class="cls-5" d="M53.5,120.4c3.2,0-23.3,3-41.6,8.1l6.9-14.4-13.6-7.1s14.9-6.8,40.3-9.9c-.5,8.5,8.1,23.3,8.1,23.3"/>
        <path class="cls-6" d="M54.6,120.6s-30.6,5.1-28.7-4.1c1.8-9.2,29-7.1,29-7.1l-.3,11.2Z"/>
        <path class="cls-5" d="M126.7,120.4c-3.3,0,23.3,3,41.6,8.1l-6.9-14.4,13.7-7.1s-14.9-6.8-40.3-9.9c.5,8.5-8.1,23.3-8.1,23.3"/>
        <path class="cls-6" d="M125.6,120.6s30.6,5.1,28.7-4.1c-1.8-9.2-29-7.1-29-7.1l.3,11.2Z"/>
        <path class="cls-4" d="M155,75.4c0,3.3-1.8,6.2-4.4,7.8,2.2,2.2,3.1,5.5,2.2,8.6-.8,3.1-3.4,5.5-6.4,6.3,1.4,2.7,1.5,6.1-.1,8.9-1.7,2.8-4.6,4.5-7.8,4.5.7,3-.1,6.2-2.5,8.5-2.4,2.3-5.7,3.1-8.8,2.5-.1,3.1-1.8,6-4.7,7.6-2.9,1.7-6.4,1.6-9.1.2-.9,2.9-3.3,5.3-6.6,6.2-3.3.9-6.5,0-8.9-2.1-1.6,2.6-4.6,4.3-8,4.3s-6.3-1.8-7.9-4.3c-2.3,2.1-5.7,3-8.9,2.1-3.3-.8-5.6-3.2-6.6-6.2-2.7,1.5-6.2,1.5-9.1-.2-2.9-1.6-4.6-4.5-4.7-7.6-3.1.7-6.4-.1-8.8-2.5-2.4-2.3-3.2-5.5-2.5-8.5-3.2,0-6.1-1.7-7.8-4.5-1.7-2.8-1.6-6.2-.1-8.9-3-.8-5.5-3.2-6.4-6.3-.9-3.1,0-6.4,2.2-8.6-2.7-1.5-4.4-4.5-4.4-7.8s1.7-6.1,4.4-7.7c-2.2-2.2-3.1-5.5-2.2-8.6.9-3.1,3.3-5.5,6.4-6.4-1.5-2.7-1.6-6.1.1-8.9,1.7-2.8,4.7-4.4,7.8-4.5-.7-2.9.1-6.2,2.5-8.6,2.3-2.2,5.7-3.1,8.8-2.4.1-3,1.8-6,4.7-7.6,2.9-1.6,6.4-1.6,9.1-.1.9-2.9,3.3-5.3,6.6-6.2,3.2-.8,6.5,0,8.8,2.1,1.6-2.6,4.6-4.3,7.9-4.3s6.4,1.7,8,4.3c2.4-2.1,5.6-3,8.9-2.1,3.3.8,5.6,3.2,6.6,6.2,2.7-1.5,6.2-1.5,9.1.1,2.9,1.7,4.6,4.6,4.7,7.6,3-.7,6.4.2,8.8,2.4,2.4,2.4,3.2,5.6,2.5,8.6,3.1.1,6.1,1.7,7.8,4.5,1.7,2.8,1.6,6.2.1,8.9,3,.9,5.5,3.2,6.4,6.3.9,3.2,0,6.4-2.2,8.6,2.7,1.6,4.4,4.5,4.4,7.7"/>
        <path class="cls-3" d="M90.1,133.6c-2.8,0-5.5-1.1-7.6-3-1.6.9-3.5,1.4-5.4,1.4s-1.9-.1-2.8-.4c-2.8-.7-5.1-2.4-6.6-4.8-.9.2-1.8.3-2.7.3-1.9,0-3.8-.5-5.4-1.4-2.5-1.4-4.3-3.6-5.1-6.2-2.9,0-5.6-1.1-7.6-3.1-2-1.9-3.1-4.5-3.2-7.2-2.7-.7-5-2.5-6.5-4.8-1.5-2.4-1.9-5.2-1.2-7.8-2.4-1.3-4.1-3.5-4.9-6.2-.7-2.8-.4-5.6,1-7.9-1.9-1.9-3-4.5-3-7.3s1.1-5.3,3-7.3c-1.3-2.3-1.7-5.1-1-7.8.8-2.7,2.5-4.9,4.9-6.3-.7-2.6-.3-5.4,1.2-7.8,1.4-2.4,3.7-4.1,6.4-4.8,0-2.7,1.2-5.3,3.2-7.3,2-1.9,4.7-3,7.6-3.1.8-2.5,2.6-4.8,5.1-6.2,1.6-.9,3.5-1.4,5.4-1.4s1.8.1,2.7.4c1.5-2.3,3.8-4.1,6.6-4.8.9-.2,1.9-.3,2.8-.3,1.9,0,3.7.5,5.3,1.3,2.1-1.9,4.8-2.9,7.6-2.9s5.6,1.1,7.6,2.9c1.6-.9,3.5-1.3,5.3-1.3s1.9.1,2.8.3c2.8.7,5.1,2.4,6.6,4.8.9-.2,1.8-.4,2.7-.4,1.9,0,3.7.5,5.4,1.4,2.5,1.4,4.3,3.6,5.1,6.2,2.8,0,5.5,1.1,7.5,3,2.1,2,3.2,4.6,3.3,7.3,2.6.7,5,2.4,6.4,4.8,1.4,2.4,1.8,5.2,1.2,7.8,2.3,1.4,4.2,3.6,4.9,6.2.7,2.7.3,5.5-1,7.8,1.9,2,3,4.6,3,7.3s-1.1,5.4-3,7.3c1.3,2.3,1.7,5.1,1,7.8-.8,2.6-2.6,4.9-4.9,6.2.6,2.6.2,5.4-1.2,7.8-1.5,2.4-3.8,4.1-6.5,4.8,0,2.7-1.2,5.2-3.2,7.2-2,2-4.7,3-7.5,3.1-.8,2.6-2.6,4.8-5.1,6.2-1.7.9-3.5,1.4-5.5,1.4s-1.8-.1-2.7-.3c-1.5,2.4-3.8,4.1-6.6,4.8-.9.2-1.8.4-2.8.4-1.9,0-3.7-.5-5.4-1.4-2,1.9-4.7,3-7.6,3"/>
        <path class="cls-7" d="M148.5,75.4c0,2.9-1.7,5.4-4,6.9,2,1.9,2.8,4.8,2,7.6-.8,2.7-3,4.7-5.7,5.5,1.3,2.4,1.3,5.3-.2,7.9-1.5,2.5-4.2,4-7.1,4,.6,2.7-.1,5.5-2.2,7.5-2.1,2.1-5.1,2.8-7.8,2.2-.1,2.7-1.6,5.2-4.3,6.7-2.6,1.5-5.7,1.4-8.2.2-.9,2.5-3,4.7-5.9,5.4-2.9.8-5.9-.1-7.9-1.9-1.5,2.2-4.2,3.8-7.2,3.8s-5.6-1.5-7.2-3.8c-2.1,1.8-5.1,2.7-7.9,1.9-2.9-.7-5.1-2.9-5.9-5.4-2.5,1.2-5.6,1.3-8.2-.2-2.6-1.4-4.1-4-4.2-6.7-2.8.6-5.8,0-7.9-2.2-2.1-2-2.9-4.8-2.3-7.5-2.8,0-5.5-1.5-7-4-1.5-2.5-1.5-5.5-.1-7.9-2.7-.7-4.9-2.8-5.7-5.5-.7-2.8,0-5.7,2-7.6-2.4-1.5-4-4-4-6.9s1.6-5.4,4-6.8c-2-1.9-2.8-4.8-2-7.5.8-2.8,3-4.9,5.7-5.7-1.3-2.4-1.4-5.3.1-7.8,1.5-2.5,4.2-4,7-4-.7-2.6.1-5.5,2.3-7.6,2.1-2,5.1-2.7,7.9-2.1,0-2.6,1.6-5.2,4.2-6.7,2.6-1.4,5.7-1.4,8.2-.1.9-2.6,3-4.7,5.9-5.4,2.9-.7,5.9,0,7.9,1.9,1.5-2.3,4.2-3.8,7.2-3.8s5.7,1.5,7.2,3.8c2.1-1.9,5-2.7,7.9-1.9,2.9.8,5.1,2.8,5.9,5.4,2.5-1.3,5.5-1.3,8.2.1,2.6,1.4,4.2,4,4.3,6.7,2.7-.6,5.7.2,7.8,2.1,2.1,2.1,2.9,5,2.2,7.6,2.8,0,5.5,1.5,7.1,4,1.5,2.5,1.4,5.4.2,7.8,2.7.8,4.9,2.9,5.7,5.6.7,2.8,0,5.7-2,7.6,2.3,1.4,4,3.9,4,6.8"/>
        <path class="cls-2" d="M90.1,82.8c44.7,1.3,64.1,10.2,64.1,11.7v24.6c-24.2-9.2-42.7-10.8-64.1-11-21.5.3-40,1.9-64.2,11v-24.6c0-1.5,19.4-10.4,64.2-11.7"/>
        <path class="cls-82" d="M89.6,104.9,89.6,106h0v-1.1c.8,0,1.6,0,2.4,0v1.1h-2.4ZM86,105h0c.8,0,1.6,0,2.4,0v1.1c-.8,0-1.6,0-2.4,0v-1.1ZM93.2,106h0v-1.1c.8,0,1.6,0,2.4,0v1.1c-.8,0-1.6,0-2.4,0M82.4,105h0c.8,0,1.6,0,2.4,0v1.1c-.8,0-1.6,0-2.4,0v-1.1s0,0,0,0ZM96.8,106.1h0v-1.1c.8,0,1.7,0,2.5,0v1.1c-.8,0-1.6,0-2.5,0M78.8,105.2h0c.8,0,1.6,0,2.4,0v1.1c-.8,0-1.6,0-2.3.1v-1.1ZM100.5,106.2h0v-1.1c.8,0,1.6,0,2.4.1v1.1c-.9,0-1.7,0-2.4,0M75.2,105.4h0c.8,0,1.6-.1,2.4-.1v1.1c-.7,0-1.5,0-2.3.1v-1.1ZM104,106.3h0v-1.1c.9,0,1.7,0,2.5.1v1.1c-.9,0-1.7,0-2.5-.1M107.6,106.5h0v-1.1c.9,0,1.7.1,2.5.2v1.1c-.9,0-1.7-.1-2.5-.2M71.6,105.7h0c.8,0,1.6-.1,2.4-.2v1.1c-.7,0-1.5.1-2.3.2v-1.1ZM111.3,105.7h0c.8,0,1.6.2,2.4.3v1.1c-.9,0-1.7-.1-2.5-.2v-1.1ZM68,106h0c.8-.1,1.6-.2,2.4-.3v1.1c-.7,0-1.5.1-2.3.2v-1.1ZM114.9,106.1h0c.8.1,1.6.2,2.4.3l-.2,1.1c-.8-.1-1.6-.2-2.4-.3l.2-1.1ZM64.4,106.4h0c.8-.1,1.6-.2,2.4-.3l.2,1.1c-.8,0-1.6.2-2.4.3l-.2-1.1ZM60.8,106.9h0c.8-.1,1.6-.2,2.4-.3l.2,1.1c-.8.1-1.6.2-2.4.3l-.2-1.1ZM118.5,106.6h0c.8.1,1.6.2,2.4.3l-.2,1.1c-.8-.1-1.6-.2-2.4-.3l.2-1.1ZM57.2,107.4h0c.8-.1,1.6-.2,2.4-.4l.2,1.1c-.8.1-1.6.2-2.3.4l-.2-1.1ZM121.9,108.1h0l.2-1.1c.8.1,1.6.2,2.4.4l-.2,1.1c-.8-.1-1.6-.3-2.3-.4M53.6,108h0c.8-.1,1.6-.2,2.4-.4l.2,1.1c-.8.1-1.6.3-2.4.4l-.2-1.1ZM125.4,108.8h0l.2-1.1c.8.1,1.6.3,2.4.4l-.3,1.1c-.8-.1-1.5-.3-2.3-.4M50.1,108.7h0c.8-.2,1.6-.3,2.4-.5l.2,1.1c-.8.1-1.6.3-2.3.5l-.3-1.1ZM128.9,109.4h0l.3-1c.8.2,1.6.3,2.3.5l-.3,1.1c-.8-.2-1.6-.4-2.3-.5M46.6,109.4h0c.8-.2,1.5-.3,2.4-.5l.3,1c-.8.2-1.6.3-2.3.5l-.3-1.1ZM132.4,110.2h0l.3-1.1c.8.2,1.5.4,2.3.6l-.3,1c-.8-.2-1.6-.4-2.3-.6M43.1,110.2h0c.8-.2,1.5-.4,2.3-.6l.3,1c-.8.2-1.6.4-2.3.6l-.3-1ZM136.4,109.9h0c.7.3,1.4.7,2.1,1l-.5.9c-.7-.4-1.4-.7-2.1-1l.5-.9ZM39.6,111.1h0c.7-.2,1.5-.4,2.3-.6l.3,1.1c-.8.2-1.6.4-2.3.6l-.3-1ZM139.7,111h0c.8.2,1.5.4,2.3.6l-.4,1c-.8-.2-1.5-.4-2.3-.6l.4-1ZM36.1,112.1h0c.8-.2,1.5-.4,2.3-.7l.4,1c-.8.2-1.6.4-2.3.6l-.4-1ZM142.7,113h0l.4-1c.8.2,1.5.5,2.3.7l-.4,1c-.7-.2-1.5-.5-2.3-.7M32.7,113.1h0c.7-.2,1.5-.5,2.3-.7l.4,1c-.8.3-1.5.5-2.3.7l-.4-1ZM146.5,113h0c.7.3,1.5.5,2.3.7l-.4,1c-.7-.3-1.5-.5-2.3-.8l.4-1ZM29.3,114.3h0c.7-.3,1.4-.5,2.3-.8l.4,1c-.8.3-1.6.5-2.2.8l-.5-1ZM149.9,114.1h0c.7.3,1.5.5,2.3.8l-.5,1c-.8-.3-1.5-.5-2.2-.8l.4-1ZM25.9,115.6h0s.8-.4,2.2-.9l.5,1c-1.5.5-2.2.9-2.2.9l-.5-1ZM152.9,116.3h0l.4-1c.1,0,.2,0,.3.1l-.4,1c-.1,0-.2,0-.3-.1"/>
        <path class="cls-82" d="M90,84.9h2.4v1.1h-2.4v-1.1ZM88.3,84.9h.5v1.1h-.5c-.6,0-1.3,0-1.9,0v-1.1c.6,0,1.3,0,1.9,0M93.6,84.9h0c.8,0,1.6,0,2.4,0v1.1c-.8,0-1.6,0-2.4,0v-1.1ZM97.2,84.9h0c.8,0,1.6,0,2.4,0v1.1c-.8,0-1.6,0-2.4,0v-1.1ZM82.8,85h0c.8,0,1.6,0,2.4,0v1.1c-.8,0-1.6,0-2.4,0v-1.1ZM100.9,85h0c.8,0,1.6,0,2.4,0v1.1c-.8,0-1.6,0-2.4,0v-1.1ZM79.2,85.1h0c.8,0,1.6,0,2.4,0v1.1c-.8,0-1.6,0-2.4,0v-1.1ZM104.5,85.1h0c.8,0,1.6,0,2.4,0v1.1c-.9,0-1.7,0-2.5-.1v-1.1ZM75.6,85.3h0c.8,0,1.6,0,2.4-.1v1.1c-.7,0-1.5,0-2.3.1v-1.1ZM108,86.3h0v-1.1c.9,0,1.7.1,2.5.2v1.1c-.9,0-1.7-.1-2.5-.2M71.9,85.5h0c.8,0,1.6-.1,2.4-.2v1.1c-.7,0-1.5.1-2.3.2v-1.1ZM111.6,86.6h0v-1.1c.9,0,1.7.1,2.5.2v1.1c-.9,0-1.7-.2-2.5-.2M68.3,85.9h0c.8,0,1.6-.2,2.4-.2v1.1c-.7,0-1.5.1-2.3.2v-1.1ZM115.2,86.9h0v-1c.9,0,1.7.2,2.5.3l-.2,1.1c-.8,0-1.6-.2-2.4-.3M64.7,86.2h0c.8-.1,1.6-.2,2.4-.3v1.1c-.7,0-1.5.1-2.2.2l-.2-1ZM118.7,87.3h0l.2-1.1c.8.1,1.6.2,2.4.3l-.2,1.1c-.8-.1-1.6-.2-2.3-.3M61.1,86.7h0c.8-.1,1.6-.2,2.4-.3v1.1c-.7,0-1.4.2-2.2.3l-.2-1.1ZM122.3,87.8h0l.2-1.1c.8.1,1.6.3,2.4.4l-.2,1.1c-.8-.1-1.6-.3-2.4-.4M57.6,87.2h0c.8-.1,1.6-.3,2.4-.3l.2,1.1c-.8.1-1.6.2-2.4.3l-.2-1.1ZM54,87.7h0c.8-.1,1.6-.3,2.4-.4l.2,1.1c-.8.1-1.6.3-2.3.4l-.2-1.1ZM125.8,88.4h0l.3-1c.8.1,1.6.3,2.4.4l-.3,1.1c-.8-.1-1.6-.3-2.3-.5M50.4,88.4h0c.8-.2,1.6-.3,2.4-.4l.2,1.1c-.8.2-1.6.3-2.3.4l-.3-1.1ZM129.3,89.2h0l.3-1.1c.8.2,1.5.3,2.3.5l-.3,1c-.8-.2-1.6-.4-2.3-.5M46.9,89.1h0c.8-.2,1.6-.3,2.3-.5l.3,1c-.8.1-1.6.3-2.3.5l-.3-1.1ZM133.1,88.9h0c.8.2,1.6.4,2.3.6l-.3,1c-.8-.2-1.5-.4-2.3-.6l.3-1ZM43.4,89.9h0c.7-.2,1.5-.4,2.3-.5l.3,1.1c-.8.2-1.6.3-2.3.5l-.3-1.1ZM136.6,89.8h0c.8.2,1.5.4,2.3.6l-.4,1c-.8-.2-1.5-.4-2.3-.6l.3-1ZM39.9,90.7h0c.8-.2,1.5-.4,2.3-.6l.3,1c-.8.2-1.5.4-2.3.6l-.3-1ZM139.7,91.8h0l.4-1c.7.2,1.5.5,2.3.7l-.4,1c-.8-.2-1.5-.5-2.3-.7M36.4,91.7h0c.7-.2,1.5-.4,2.3-.7l.3,1c-.8.2-1.6.4-2.3.6l-.4-1ZM143.1,92.8h0l.4-1c.8.2,1.5.5,2.3.7l-.4,1c-.8-.3-1.5-.5-2.3-.7M33,92.7h0c.7-.2,1.5-.5,2.3-.7l.4,1c-.8.3-1.6.5-2.3.7l-.4-1ZM146.5,93.9h0l.4-1c.8.3,1.5.5,2.3.8l-.4,1c-.8-.3-1.5-.5-2.3-.8M29.6,93.9h0c.7-.2,1.4-.5,2.3-.8l.4,1c-.8.3-1.6.6-2.2.8l-.4-1ZM149.8,95h0l.4-1c.7.3,1.5.5,2.2.8l-.5,1c-.7-.3-1.5-.5-2.2-.8M26.2,95.2h0s.8-.3,2.2-.9l.5,1c-1.5.5-2.2.9-2.2.9l-.5-1ZM153.6,95.2h0c0,0,.1,0,.2,0l-.5,1c0,0-.1,0-.2,0l.4-1Z"/>
      </g>
      <g class="cls-48">
        <rect class="cls-16" x="56.5" y="5.4" width="84.4" height="94.8" transform="translate(4.7 113.5) rotate(-61)"/>
      </g>
      <g class="cls-51">
        <path class="cls-79" d="M79.4,28.5s-9.6,12,.5,18.6c10.1,6.6,53.6,27.6,47.3,6.2,0,0,9.9,12,11.2,16.7,0,0-10.8,5.8-26.3,2.4-15.5-3.4-22.6-9-30.1-15.8-7.5-6.8-10.5-10-9.7-15.6.9-5.6,3.5-10.9,7.1-12.5"/>
        <path class="cls-47" d="M90.5,67.7c-1.3.4-2.9-.7-3.9-3.3-1-2.6-.5-4.5.8-4.9,1.3-.4,2.9,1,3.9,3.6,1,2.6.5,4.2-.8,4.6"/>
        <path class="cls-47" d="M97.5,72.5c-1.7.5-3.7-.8-4.9-4-1.2-3.2-.6-5.6,1.1-6.1,1.7-.5,3.7,1.2,4.9,4.4,1.2,3.2.5,5.2-1.1,5.7"/>
        <path class="cls-47" d="M107,75.4c-1.5.9-3.8.2-5.8-2.7-2.1-2.8-2.1-5.3-.7-6.2,1.5-.9,3.9.2,6,3.1,2.1,2.8,2,5,.6,5.8"/>
        <path class="cls-47" d="M117.2,76c-1,1.3-3.3,1.4-6.3-.5-3-1.9-4-4.2-3.1-5.5,1-1.3,3.5-1.1,6.5.8,3,1.9,3.8,3.9,2.8,5.2"/>
        <path class="cls-47" d="M139.9,72.9c-.4,1.2-1.8,1.9-3.8,1.2-2-.7-2.9-2.1-2.5-3.3.4-1.2,2-1.7,4-1,2,.7,2.7,1.9,2.3,3.1"/>
        <path class="cls-47" d="M135.5,74.9c-.4,1.3-2.2,1.9-5.1.9-2.8-1-4.2-2.6-3.8-3.9.4-1.3,2.5-1.7,5.4-.7,2.8,1,3.9,2.4,3.5,3.7"/>
        <path class="cls-47" d="M128.1,75.9c-.5,1.5-2.7,2.2-6.1,1.1-3.4-1.1-5.1-3.1-4.6-4.6.5-1.5,3-2,6.4-.8,3.4,1.1,4.7,2.9,4.2,4.4"/>
      </g>
      <g class="cls-49">
        <rect class="cls-15" x="83.6" y="58.3" width="10.1" height="8.8" transform="translate(3.3 129.8) rotate(-73.5)"/>
      </g>
      <g class="cls-50">
        <rect class="cls-14" x="89.1" y="61" width="12.6" height="11.1" transform="translate(4.4 139.1) rotate(-73.5)"/>
      </g>
      <g class="cls-56">
        <rect class="cls-13" x="97.3" y="64.2" width="12.3" height="12" transform="translate(6.7 149.4) rotate(-73.5)"/>
      </g>
      <g class="cls-53">
        <rect class="cls-10" x="106.6" y="65.6" width="11.2" height="13.1" transform="translate(11.1 159.2) rotate(-73.5)"/>
      </g>
      <g class="cls-52">
        <rect class="cls-11" x="132.9" y="66.8" width="7.1" height="8.3" transform="translate(29.6 181.6) rotate(-73.5)"/>
      </g>
      <g class="cls-55">
        <rect class="cls-9" x="126.5" y="67.1" width="8.6" height="11.1" transform="translate(23.9 177.3) rotate(-73.5)"/>
      </g>
      <g class="cls-54">
        <rect class="cls-8" x="117.3" y="66.8" width="10.3" height="13.2" transform="translate(17.3 169.9) rotate(-73.5)"/>
      </g>
      <g class="cls-22">
        <path class="cls-47" d="M76.4,31c-.7-.5-.7-2,.7-3.9,1.4-1.9,2.8-2.6,3.6-2.1.7.5.5,2.1-.9,4-1.4,1.9-2.6,2.5-3.4,1.9"/>
        <path class="cls-47" d="M73.7,35.3c-.8-.3-1.1-1.7-.3-3.9.9-2.2,2.1-3.3,3-2.9.8.3,1,1.9.1,4.1-.9,2.2-1.9,3-2.8,2.7"/>
        <path class="cls-47" d="M71.4,40.2c-.8-.3-1.1-1.7-.3-3.9.9-2.2,2.1-3.3,3-2.9.8.3,1,1.9.1,4.1-.9,2.2-1.9,3-2.8,2.7"/>
        <path class="cls-47" d="M71.4,45.5c-.9-.1-1.5-1.4-1.3-3.7.3-2.3,1.2-3.7,2.1-3.6.9.1,1.4,1.6,1.2,4-.3,2.3-1.1,3.4-2,3.3"/>
      </g>
      <g class="cls-19">
        <rect class="cls-12" x="75.4" y="23.4" width="6.9" height="7.6" transform="translate(-3.7 15.5) rotate(-11)"/>
      </g>
      <g class="cls-26">
        <rect class="cls-61" x="72.4" y="27.1" width="6.1" height="8" transform="translate(-4.5 14.9) rotate(-11)"/>
      </g>
      <g class="cls-24">
        <rect class="cls-62" x="70.1" y="32" width="6.1" height="8" transform="translate(-5.5 14.6) rotate(-11)"/>
      </g>
      <g class="cls-25">
        <rect class="cls-63" x="69.6" y="37" width="5.2" height="8" transform="translate(-6.5 14.5) rotate(-11)"/>
      </g>
      <g class="cls-23">
        <path class="cls-47" d="M72.1,49.9c-1,0-1.9-1.2-1.9-3.6,0-2.3.9-3.8,2-3.8,1,0,1.8,1.5,1.8,3.8,0,2.3-.9,3.5-1.9,3.5"/>
      </g>
      <g class="cls-20">
        <rect class="cls-64" x="69.9" y="41.3" width="5.2" height="7.9" transform="translate(-7.3 14.6) rotate(-11)"/>
      </g>
      <g class="cls-17">
        <path class="cls-47" d="M75.2,55.3c-1,.2-2.1-.8-2.6-3-.5-2.3,0-3.9,1.1-4.1,1-.2,2.1,1,2.6,3.3.5,2.3,0,3.6-1,3.8"/>
      </g>
      <g class="cls-21">
        <rect class="cls-66" x="71.8" y="46.8" width="6" height="8.2" transform="translate(-8.3 15.2) rotate(-11)"/>
      </g>
      <g class="cls-18">
        <path class="cls-47" d="M79.6,59.8c-1.2.3-2.5-.8-3-3.4-.6-2.5,0-4.3,1.3-4.6,1.2-.3,2.4,1.1,3,3.7.6,2.5,0,4-1.2,4.3"/>
      </g>
      <g class="cls-41">
        <rect class="cls-72" x="75.7" y="50.5" width="6.8" height="9.1" transform="translate(-9 16) rotate(-11)"/>
      </g>
      <g class="cls-42">
        <path class="cls-47" d="M84.8,63.1c-1.1.6-2.6-.1-3.8-2.4-1.2-2.3-1.1-4.2,0-4.7,1.1-.6,2.6.4,3.8,2.7,1.2,2.3,1,3.9,0,4.4"/>
      </g>
      <g class="cls-43">
        <rect class="cls-73" x="79.6" y="54.3" width="7.6" height="8.9" transform="translate(-9.7 16.9) rotate(-11)"/>
      </g>
      <g class="cls-44">
        <path class="cls-58" d="M110,40.1s-17.9-9.9-26.2-10.8c-4.2-.5-2.1,3.5,3,3.9,5.6.4,15.1,3.2,23.2,7"/>
      </g>
      <g class="cls-45">
        <rect class="cls-74" x="36" y="31.9" width="47.5" height="64.1" transform="translate(-18.2 103.7) rotate(-73.9)"/>
      </g>
      <g class="cls-46">
        <path class="cls-81" d="M68.8,81.2c.1.7,1.1,1,2.1.8,1-.2,1.7-.9,1.6-1.6-.1-.7-1.1-1-2.1-.8-1,.2-1.7.9-1.6,1.6"/>
        <path class="cls-83" d="M68.8,81c.1.5.9.8,1.8.7.9-.2,1.5-.8,1.4-1.3-.1-.5-.9-.8-1.8-.7-.9.2-1.5.8-1.4,1.3"/>
        <path class="cls-81" d="M73.4,78.1c.2.9,1.5,1.4,2.8,1.1,1.4-.3,2.3-1.3,2.2-2.2-.2-.9-1.5-1.4-2.8-1.1-1.4.3-2.3,1.3-2.2,2.2"/>
        <path class="cls-83" d="M73.5,77.9c.2.7,1.3,1.2,2.5.9,1.2-.2,2-1.1,1.9-1.8-.2-.7-1.3-1.2-2.5-.9-1.2.3-2,1.1-1.9,1.8"/>
        <path class="cls-81" d="M58.3,74.5s2.6,1.7,4.7-1c0,0-1.5,4.4-4.7,1"/>
        <path class="cls-79" d="M59.2,64.9s-15.3,12.1-12.5-5.5c0,0-3,1.1-2.4,4,.6,3,2.6,14.4,13.3,16.4,0,0-2.4-4.4,1.6-14.9"/>
      </g>
      <g class="cls-39">
        <rect class="cls-75" x="51.6" y="49.2" width="41.6" height="35" transform="translate(-12.1 16.2) rotate(-11.8)"/>
      </g>
      <g class="cls-37">
        <path class="cls-59" d="M57.4,77.8c0,.9.1,1.6.2,2,3.2-.9,6.1-1.9,8.8-3-.6,0-1.2-.2-1.9-.4,0,0-3.5,4.2-7,1.3"/>
        <path class="cls-59" d="M89.2,62.2c.3-.4.5-.6.6-.8,0-.2-.3-.5-.5-.8.2.5.1,1.1-.1,1.7"/>
        <path class="cls-59" d="M73.7,73.6c1-.5,1.9-1,2.7-1.4-.6,0-1.2,0-1.9-.2,0,0-.2.7-.8,1.6"/>
        <path class="cls-59" d="M88,58.6c-1.4-1.6-3.5-3.5-6.3-4.5-2-.7-4.1-.8-6.3-.5,4,.5,7.5,1.7,9.6,3.1,0,0,1.7.7,3,1.9"/>
        <path class="cls-59" d="M82.8,68c1.3-1,2.4-1.9,3.3-2.7-1.9,1.4-3.4,1.7-3.4,1.7,0,0,0,.4,0,1"/>
        <path class="cls-81" d="M86.1,65.3c.8-.6,1.7-1.4,2.6-2.4.2-.3.4-.5.5-.8-.6.7-1.6,1.8-3.1,3.2"/>
        <path class="cls-81" d="M73.7,73.6c-2.2,1.1-4.6,2.2-7.3,3.3,4.1.6,6.3-1.6,7.3-3.3"/>
        <path class="cls-81" d="M88,58.6c.6.7,1.1,1.4,1.4,1.9-.2-.7-.8-1.4-1.4-1.9"/>
        <path class="cls-81" d="M82.8,68c-1.8,1.3-3.9,2.7-6.4,4.1,5.3.2,6.3-2.6,6.4-4.1"/>
        <path class="cls-81" d="M89.4,60.5c-.3-.5-.8-1.2-1.4-1.9-1.3-1.1-3-1.9-3-1.9-2.1-1.4-5.7-2.6-9.6-3.1-.2,0-.5,0-.7.1-.9.2-1.9.5-2.8.8,2.8.5,5.3,1.5,6.9,2.7,0,0,5.2,2.5,3,5.3-2.2,2.8-4.5,3.4-4.5,3.4,0,0,1,5.3-6.3,4,0,0-1.5,5.8-7.6,3.6,0,0-2.7,3.6-5.5.9,0,0-.2-.2-.3-.3-.1,1.4-.1,2.7-.1,3.7,3.5,2.8,7-1.3,7-1.3.7.2,1.3.3,1.9.4,2.7-1.1,5.2-2.2,7.3-3.3.6-.9.8-1.6.8-1.6.7,0,1.3.2,1.9.2,2.5-1.4,4.7-2.8,6.4-4.1,0-.6,0-1,0-1,0,0,1.5-.4,3.4-1.7,1.5-1.3,2.5-2.4,3.1-3.2.3-.6.3-1.1.1-1.7"/>
        <path class="cls-83" d="M57.5,74.1c0,.1.2.2.3.3,2.8,2.7,5.5-.9,5.5-.9,6.1,2.2,7.6-3.6,7.6-3.6,7.2,1.3,6.3-4,6.3-4,0,0,2.3-.6,4.5-3.4,2.2-2.8-3-5.3-3-5.3-1.6-1.2-4-2.1-6.9-2.7-.8.3-1.7.7-2.5,1.1-8.8,4.6-11.2,12.7-11.7,18.4"/>
        <path class="cls-81" d="M69.7,69.6s9.9,4,7.1-6.8c0,0,4.6,11.8-7.1,6.8"/>
        <path class="cls-81" d="M63.4,74s7.9,1.8,7.1-6.8c0,0,2.1,9.2-7.1,6.8"/>
        <path class="cls-57" d="M66,60.7s-1,5.3-.9,6.8c0,0-4.1,2.8-3.7-.3.5-3.1,2.6-5.6,4.5-6.5"/>
        <path class="cls-58" d="M64,64.9c.2-.9,1.6-3.8,2-4.3l-.8,5.3s-1.7.9-1.2-1"/>
        <path class="cls-57" d="M78.2,59.6s5.4-.1,6.8-.6c0,0,3.7,3.4.5,3.6-3.1.2-6-1.4-7.3-3"/>
        <path class="cls-58" d="M82.8,60.6c-.9,0-4-.8-4.6-1l5.4-.3s1.2,1.5-.8,1.4"/>
        <path class="cls-78" d="M72.4,61.6c0-2-3.6,3-.9,3.9,2.8.8.9-3.9.9-3.9M71.6,65c-2.2-.6.6-4.5.7-3,0,0,1.5,3.6-.7,3"/>
        <path class="cls-78" d="M65.5,68.2c-1.3-1.5-.8,4.6,1.8,3.5,2.7-1.1-1.8-3.5-1.8-3.5M67.1,71.4c-2.1.9-2.4-3.9-1.4-2.7,0,0,3.5,1.8,1.4,2.7"/>
        <path class="cls-81" d="M61.8,70s3.3.1,4.3-3.5c0,0,.4,4.8-4.3,3.5"/>
        <path class="cls-60" d="M69,58.9c-1.1,1.6-2.9.2-3.4-.8-.2.1-.4.3-.5.4,1.2,1.5,3.6,3.1,5,1.1,1.5-2.1-.7-2.7-2.6-2.9-.3.2-.6.4-.9.6,1.1-.1,3.7-.3,2.5,1.5"/>
        <path class="cls-47" d="M48.7,52.8c-.7-.5-.7-1.9.6-3.9,1.3-1.9,2.8-2.7,3.5-2.2.7.5.5,2.1-.8,4-1.3,1.9-2.6,2.5-3.3,2"/>
        <path class="cls-47" d="M46.1,57.2c-.8-.3-1.2-1.7-.3-3.9.8-2.2,2-3.3,2.9-2.9.8.3,1,1.9.2,4.1-.8,2.2-1.9,3-2.7,2.7"/>
        <path class="cls-47" d="M43.9,62.1c-.8-.3-1.2-1.7-.3-3.9.8-2.2,2-3.3,2.9-2.9.8.3,1,1.9.2,4.1-.8,2.2-1.9,3-2.7,2.7"/>
        <path class="cls-47" d="M44,67.3c-.9,0-1.6-1.4-1.3-3.7.2-2.3,1.2-3.7,2.1-3.6.9,0,1.5,1.6,1.2,3.9-.2,2.3-1.1,3.4-2,3.3"/>
      </g>
      <g class="cls-40">
        <rect class="cls-65" x="47.7" y="45.2" width="6.9" height="7.7" transform="translate(-8.9 11.5) rotate(-11.8)"/>
      </g>
      <g class="cls-38">
        <rect class="cls-68" x="44.7" y="49" width="6.1" height="8" transform="translate(-9.8 10.9) rotate(-11.8)"/>
      </g>
      <g class="cls-33">
        <rect class="cls-67" x="42.5" y="53.9" width="6.1" height="8" transform="translate(-10.9 10.5) rotate(-11.8)"/>
      </g>
      <g class="cls-27">
        <rect class="cls-69" x="42.1" y="58.8" width="5.2" height="8" transform="translate(-11.9 10.5) rotate(-11.8)"/>
      </g>
      <g class="cls-28">
        <path class="cls-47" d="M44.7,71.7c-1,0-1.9-1.2-1.9-3.5,0-2.3.9-3.8,1.9-3.8,1,0,1.9,1.5,1.8,3.8,0,2.3-.8,3.5-1.8,3.5"/>
      </g>
      <g class="cls-29">
        <rect class="cls-70" x="42.5" y="63.2" width="5.2" height="7.9" transform="translate(-12.8 10.6) rotate(-11.8)"/>
      </g>
      <g class="cls-30">
        <path class="cls-47" d="M47.9,77.1c-1,.2-2.2-.7-2.7-3-.5-2.3,0-3.9,1-4.1,1-.2,2.1,1,2.7,3.3.5,2.3,0,3.6-1,3.8"/>
      </g>
      <g class="cls-31">
        <rect class="cls-76" x="44.4" y="68.6" width="6.1" height="8.2" transform="translate(-13.9 11.2) rotate(-11.8)"/>
      </g>
      <g class="cls-34">
        <path class="cls-47" d="M52.3,81.5c-1.2.3-2.5-.8-3-3.3-.6-2.5,0-4.3,1.2-4.6,1.2-.3,2.4,1.1,3,3.6.6,2.5,0,4-1.2,4.3"/>
      </g>
      <g class="cls-35">
        <rect class="cls-71" x="48.3" y="72.2" width="6.9" height="9.1" transform="translate(-14.6 12.2) rotate(-11.8)"/>
      </g>
      <g class="cls-36">
        <path class="cls-47" d="M57.6,84.7c-1.1.6-2.6-.1-3.8-2.4-1.2-2.3-1.1-4.2,0-4.7,1.1-.6,2.6.4,3.9,2.7,1.2,2.3,1,3.9,0,4.4"/>
      </g>
      <g class="cls-32">
        <rect class="cls-77" x="52.2" y="76" width="7.7" height="8.9" transform="translate(-15.3 13.2) rotate(-11.8)"/>
      </g>
      <path class="cls-58" d="M78.4,51.8s-16.8-4.6-23-2.8c-3.7,1.1-.3,3.7,5,2.4,5.4-1.4,11.2-.7,18,.4"/>
      <path class="cls-57" d="M52.1,93.5l1.7-.4c1.4-.3,2.4-.6,2.9-.6,1.5-.3,2.8-.3,3.7,0,1,.3,1.7.8,2.3,1.6.6.7,1,1.6,1.2,2.7.1.8.2,1.5,0,2.2-.1.7-.3,1.3-.7,1.7-.3.5-.7.9-1.2,1.2-.5.3-1,.5-1.4.7-.5.1-1.1.3-2,.5l-4.6.9v-.4c0,0,.4,0,.4,0,.4,0,.7-.2.9-.3.1-.1.2-.3.2-.6,0-.2,0-.8-.2-1.7l-.9-5c-.2-.8-.3-1.4-.4-1.6,0-.2-.2-.4-.4-.4-.2,0-.5,0-1,0h-.3c0,0,0-.3,0-.3ZM55.3,93.1l1.3,6.9c.2,1,.3,1.7.4,2,0,.3.2.5.5.6.2,0,.6,0,1.2,0,.9-.2,1.6-.4,2.2-.8.5-.4.9-.9,1.2-1.7.3-.8.3-1.8,0-2.9-.2-.9-.4-1.6-.8-2.3-.4-.6-.8-1.1-1.3-1.5-.5-.4-1-.6-1.6-.6-.5,0-1.2,0-2,.1-.4,0-.8.2-1.2.3"/>
      <path class="cls-57" d="M74.1,97.4h.4s.1,3.3.1,3.3l-8.7.9v-.4s.2,0,.2,0c.5,0,.9-.2,1-.3.1-.2.2-.3.2-.6,0-.2,0-.8-.1-1.6l-.6-5.2c0-.8-.2-1.3-.2-1.6,0-.2-.2-.4-.4-.5-.2,0-.5,0-1,0v-.4s7.5-.8,7.5-.8l.5,2.6h-.4c-.2-.7-.5-1.2-.8-1.5-.3-.3-.6-.4-.9-.5-.3,0-.9,0-1.6,0l-1.5.2.5,4.4h1.1c.5-.2.9-.3,1.1-.4.2-.1.3-.3.4-.4,0-.2,0-.5,0-1.1h.4s.4,3.6.4,3.6h-.4c0-.5-.2-.9-.3-1.1-.1-.2-.3-.3-.5-.3-.2,0-.5,0-1,0h-1.2c0,.1.3,2.6.3,2.6.1,1.2.3,2,.5,2.2.2.2.6.3,1.3.2h.8c.6-.1,1-.3,1.3-.4.3-.2.6-.5.9-1,.3-.5.5-1.1.6-1.9"/>
      <path class="cls-57" d="M84.5,97.1v3.1c0,0-8.9.4-8.9.4v-.4s.3,0,.3,0c.5,0,.8,0,.9-.2.2-.1.3-.3.3-.5,0-.2,0-.8,0-1.7l-.3-5.2c0-.8,0-1.4-.2-1.6,0-.2-.2-.4-.3-.5-.2,0-.5-.1-1,0h-.2s0-.3,0-.3l5.1-.3v.4s-.4,0-.4,0c-.5,0-.9,0-1,.2-.2,0-.3.3-.3.5,0,.2,0,.8,0,1.7l.3,5.5c0,.8,0,1.2.1,1.4,0,.2.2.3.4.4.2,0,.6.1,1.2.1h.8c.6,0,1.1-.2,1.4-.3.3-.1.6-.4.9-.8.3-.4.5-1,.7-1.9h.4Z"/>
      <path class="cls-57" d="M85,90v-.4s4.8,0,4.8,0v.4s-.2,0-.2,0c-.5,0-.9,0-1,.1-.2,0-.3.2-.3.5,0,.2,0,.8,0,1.7v5.2c0,.8,0,1.4.1,1.6,0,.3.1.4.3.6.2.1.5.2,1,.2h.3s0,.4,0,.4h-4.8s0-.3,0-.3h.3c.5,0,.8,0,.9-.2.2-.1.3-.3.3-.5,0-.2,0-.8,0-1.7v-5.2c0-.8,0-1.4-.1-1.6,0-.2-.2-.4-.3-.5-.2,0-.5-.1-1-.1h-.2Z"/>
      <path class="cls-57" d="M100.5,96.5h.3s-.1,3.7-.1,3.7h-.3c0-.4-.2-.8-.5-1.1-1,1-2.2,1.5-3.6,1.4-1.5,0-2.8-.6-3.7-1.6-.9-1-1.4-2.3-1.3-3.9,0-1,.3-2,.8-2.9.5-.9,1.1-1.6,2-2,.8-.4,1.7-.6,2.7-.6.8,0,1.5.2,2.1.6.6.4,1.1.7,1.4,1.1.2-.4.4-.9.5-1.4h.3s0,4,0,4h-.3c-.2-1.4-.6-2.5-1.3-3-.7-.6-1.5-.9-2.4-.9-1.1,0-2,.4-2.7,1.2-.7.9-1.1,2.1-1.1,3.8,0,1.6.2,2.8.9,3.7.7.9,1.5,1.3,2.6,1.4.6,0,1.2,0,1.8-.3.6-.3,1.1-.7,1.5-1.3.4-.6.6-1.3.7-1.9"/>
      <path class="cls-57" d="M102.9,90.5v-.4s4.8.4,4.8.4v.4s-.3,0-.3,0c-.5,0-.9,0-1,0-.2,0-.3.2-.4.5,0,.2-.2.8-.2,1.7l-.5,5.2c0,.8-.1,1.4,0,1.6,0,.3.1.5.3.6.2.1.5.2,1,.3h.3s0,.4,0,.4l-4.8-.4v-.4s.3,0,.3,0c.5,0,.8,0,1,0,.2,0,.3-.3.4-.5,0-.2.1-.8.2-1.7l.5-5.2c0-.8.1-1.4,0-1.6,0-.2-.1-.4-.3-.5-.2-.1-.5-.2-1-.2h-.2Z"/>
      <path class="cls-57" d="M114.5,98.1l-4-.6-.4.6c-.5.9-.8,1.5-.9,1.8,0,.3,0,.6.2.8.2.2.5.3.8.4v.4c0,0-3.2-.4-3.2-.4v-.4c.5,0,.9-.1,1.2-.3.3-.2.6-.7,1-1.5,0,0,.2-.4.5-.8l4.1-6.8h.3s2.3,8.9,2.3,8.9l.3,1.2c0,.3.2.5.4.6.2.2.4.3.8.4v.4s-4.2-.6-4.2-.6v-.4c.6,0,.9,0,1.1,0,.2,0,.3-.2.3-.4,0-.1,0-.5-.2-1.1l-.5-2.1ZM114.4,97.8l-1.2-4.7-2.5,4.2,3.7.5Z"/>
      <path class="cls-57" d="M118.5,102.6l.7-3.3h.4c0,2.3.8,3.6,2.4,4,.7.2,1.3,0,1.8-.3.5-.3.8-.7.9-1.3.1-.5,0-1-.2-1.4-.3-.4-.8-.9-1.7-1.5-.8-.5-1.3-1-1.7-1.3-.4-.4-.6-.8-.8-1.3-.1-.5-.2-1,0-1.4.2-.7.5-1.3,1.2-1.7.6-.4,1.3-.5,2.1-.3.4,0,.8.3,1.2.5.4.2.7.6,1,1.1.3-.2.5-.5.6-.8h.3c0,0-.6,2.8-.6,2.8h-.3c0-.9-.2-1.6-.6-2.2-.4-.6-.9-.9-1.6-1-.6-.1-1.1,0-1.5.2-.4.3-.6.6-.7,1-.1.5,0,.9.3,1.3.3.4.8.9,1.7,1.5.8.6,1.4,1,1.7,1.4.4.3.6.7.8,1.2.2.5.2,1,0,1.6-.2.9-.6,1.5-1.4,2-.7.4-1.6.5-2.5.3-1.1-.2-2-.9-2.6-1.9-.2.2-.4.5-.6.9h-.4Z"/>
      <path class="cls-57" d="M71.1,117.4v1.1c.1.4.2.7.2.8,0,.1,0,.2.2.3,0,0,.3,0,.5,0h.2s0,.2,0,.2l-2.4.2v-.2s.1,0,.1,0c.2,0,.4,0,.5-.1,0,0,.1-.2.1-.3,0-.1,0-.4,0-.8l-.2-2.6c0-.4,0-.7-.1-.8,0-.1,0-.2-.2-.2,0,0-.3,0-.5,0h0s0-.2,0-.2h.7c.5-.1.9-.2,1.2-.2.5,0,1,0,1.3,0,.3,0,.6.2.8.4.2.2.3.5.4.8,0,.3,0,.5-.1.8-.1.2-.3.4-.5.5-.2.1-.6.2-1.3.3h-.6ZM71.1,117.3h.4c.3,0,.5-.1.7-.2.2,0,.3-.2.4-.4.1-.2.1-.4.1-.7,0-.4-.2-.7-.4-.9-.2-.2-.6-.3-1.1-.2-.2,0-.3,0-.4,0l.2,2.4Z"/>
      <path class="cls-57" d="M79.7,119.4h-1.4c-.3,0-.7-.5-1.2-1.2-.2-.2-.4-.4-.6-.7-.2-.2-.3-.3-.4-.4,0,0-.2,0-.3,0h-.2s0,1.2,0,1.2c0,.4,0,.7,0,.8,0,.1,0,.2.2.3,0,0,.3,0,.5,0h.3s0,.2,0,.2h-2.5c0,.1,0,0,0,0h.2c.2,0,.4,0,.5-.1,0,0,.1-.2.2-.3,0-.1,0-.4,0-.8v-2.6c-.2-.4-.2-.7-.2-.8,0-.1,0-.2-.2-.2,0,0-.3,0-.5,0h0s0-.2,0-.2h.8c.5-.1.9-.2,1.2-.2.5,0,.9,0,1.2,0,.3,0,.6.2.8.4.2.2.3.5.3.7,0,.3,0,.6-.3.9-.2.3-.6.4-1.1.5.2,0,.6.5,1.1,1.1.4.5.8.8,1,1,.2.2.5.2.8.2v.2ZM75.6,116.9c.2,0,.4,0,.6,0,.2,0,.4,0,.5-.1.1,0,.3-.1.4-.2,0,0,.2-.2.2-.4,0-.1,0-.3,0-.5,0-.4-.1-.7-.3-.9-.2-.2-.6-.3-1.2-.3,0,0-.2,0-.3,0v2.4Z"/>
      <path class="cls-57" d="M84.2,117.6h.2s0,1.6,0,1.6h-4.4c0,.1,0,0,0,0h.1c.3,0,.4,0,.5-.1s.1-.2.1-.3c0-.1,0-.4,0-.8v-2.6c0-.4,0-.7-.1-.8,0-.1,0-.2-.2-.3,0,0-.2,0-.5,0v-.2s3.8,0,3.8,0l.2,1.3h-.2c0-.4-.2-.6-.3-.8-.1-.2-.3-.2-.4-.3-.2,0-.4,0-.8,0h-.7s0,2.2,0,2.2h.6c.3,0,.4,0,.5,0,.1,0,.2-.1.2-.2,0,0,0-.3,0-.5h.2s0,1.8,0,1.8h-.2c0-.3,0-.5,0-.6,0,0-.1-.2-.2-.2,0,0-.3,0-.5,0h-.6s0,1.3,0,1.3c0,.6,0,1,.1,1.1,0,.1.3.2.7.1h.4c.3,0,.5,0,.7-.1.2,0,.3-.2.5-.5.2-.2.3-.5.4-.9"/>
      <path class="cls-57" d="M88.3,118.3l2-4.4h1.6s0,.2,0,.2h-.2c-.3,0-.4,0-.5,0,0,0-.1.1-.2.2,0,.1,0,.4,0,.8v2.6c0,.4,0,.7,0,.8,0,.1,0,.2.2.3,0,0,.2,0,.5,0h.2v.2h-2.5s0-.2,0-.2h.2c.2,0,.4,0,.5,0,0,0,.1-.1.2-.3,0-.1,0-.4,0-.8v-3.4s-2.1,4.7-2.1,4.7h-.2s-2.1-4.8-2.1-4.8v3.1c0,.4,0,.7,0,.9s.1.3.2.4c.1.1.3.2.6.2v.2s-1.9,0-1.9,0v-.2c.2,0,.4,0,.6-.2.1-.1.2-.2.3-.4,0-.2,0-.5,0-.9v-2.3c0-.4,0-.7,0-.8,0-.1,0-.2-.2-.3,0,0-.3,0-.5,0h-.1s0-.2,0-.2h1.6s1.9,4.4,1.9,4.4Z"/>
      <path class="cls-57" d="M92.4,114.2v-.2s2.4,0,2.4,0v.2s-.1,0-.1,0c-.3,0-.4,0-.5,0,0,0-.1.1-.2.2,0,.1,0,.4,0,.8v2.6c-.1.4-.1.7,0,.8,0,.1,0,.2.1.3,0,0,.2.1.5.1h.2s0,.2,0,.2h-2.4c0,0,0-.3,0-.3h.2c.2,0,.4,0,.5,0,0,0,.1-.1.2-.3,0-.1,0-.4,0-.8v-2.6c.1-.4.1-.7,0-.8,0-.1,0-.2-.1-.3,0,0-.3,0-.5,0h-.1Z"/>
      <path class="cls-57" d="M99.3,114.4h1.8c0,.1,0,.3,0,.3-.2,0-.4,0-.5.1-.1,0-.2.2-.2.3,0,.1,0,.3,0,.6v1.8c-.1.4-.2.8-.2,1,0,.2-.2.4-.3.6-.2.2-.4.4-.7.5-.3.1-.7.1-1.1.1-.5,0-.9-.1-1.2-.3-.3-.2-.5-.4-.7-.7-.1-.3-.2-.6-.1-1v-.5s.1-1.6.1-1.6c0-.4,0-.7,0-.8,0-.1,0-.2-.1-.3,0,0-.2,0-.5-.1h-.1s0-.2,0-.2l2.4.2v.2s-.1,0-.1,0c-.3,0-.4,0-.5,0,0,0-.1.1-.2.2,0,.1,0,.4,0,.8v1.7c-.1.6-.1,1-.1,1.2,0,.2.2.5.4.7.2.2.6.3,1,.3.3,0,.6,0,.9-.1.3-.1.5-.2.6-.4.1-.2.2-.4.3-.5,0-.2,0-.5,0-.9v-1.8c.1-.3.1-.5.1-.6,0-.1,0-.2-.2-.3-.1,0-.3-.1-.5-.2v-.2Z"/>
      <path class="cls-57" d="M104.6,119.2l2.4-4.2,1.6.2v.2s-.2,0-.2,0c-.3,0-.4,0-.5,0,0,0-.1.1-.2.2,0,.1,0,.4-.1.8l-.3,2.6c0,.4,0,.7,0,.8,0,.1,0,.2.1.3,0,0,.2.1.5.1h.2s0,.2,0,.2l-2.5-.3v-.2s.2,0,.2,0c.2,0,.4,0,.5,0,0,0,.2-.1.2-.2,0-.1,0-.4.1-.8l.3-3.3-2.6,4.5h-.2s-1.6-5-1.6-5l-.3,3.1c0,.4,0,.7,0,.9,0,.2,0,.3.2.4.1.1.3.2.5.3v.2s-1.9-.2-1.9-.2v-.2c.2,0,.4,0,.6-.1.2,0,.3-.2.3-.4,0-.2,0-.5.1-.9l.2-2.3c0-.4,0-.7,0-.8,0-.1,0-.2-.1-.3,0,0-.2,0-.5-.1h-.1s0-.2,0-.2l1.6.2,1.5,4.6Z"/>
      <rect class="cls-1" x="-1.3" y="-1.1" width="181.1" height="155.2"/>
    </g>
  </g>
</svg>